<svg width="140" height="128" viewBox="0 0 140 128" fill="none" xmlns="http://www.w3.org/2000/svg">
<path d="M140 62.5C140 70.7076 138.189 78.8349 134.672 86.4177C131.154 94.0006 125.998 100.891 119.497 106.694C112.997 112.498 105.281 117.102 96.7878 120.242C88.295 123.383 79.1925 125 70 125C60.8075 125 51.7049 123.383 43.2122 120.242C34.7194 117.102 27.0026 112.498 20.5025 106.694C14.0024 100.891 8.84626 94.0006 5.32843 86.4177C1.8106 78.8349 -8.03636e-07 70.7076 0 62.5L70 62.5H140Z" fill="#111111"/>
<rect x="40" y="102" width="59" height="26" fill="#111111"/>
</svg>
