<svg width="292" height="144" viewBox="0 0 292 144" fill="none" xmlns="http://www.w3.org/2000/svg">
<path d="M66.7086 129.032C65.77 128.739 65.3886 128.211 65.5646 127.448L65.9166 123.4C66.034 122.931 66.21 122.608 66.4446 122.432C66.738 122.256 67.0606 122.285 67.4126 122.52C69.466 123.635 71.5193 124.456 73.5726 124.984C75.6846 125.453 78.09 125.688 80.7886 125.688C85.0713 125.688 88.562 124.515 91.2606 122.168C94.018 119.821 95.3966 116.507 95.3966 112.224C95.3966 110.523 94.722 108.821 93.3726 107.12C92.082 105.419 90.2633 103.805 87.9166 102.28C85.8633 100.989 83.546 99.64 80.9646 98.232C78.3833 96.824 75.9193 95.2987 73.5726 93.656C71.226 91.9547 69.2606 90.0773 67.6766 88.024C66.0926 85.912 65.3006 83.4773 65.3006 80.72C65.3006 77.904 65.8873 75.44 67.0606 73.328C68.234 71.1573 69.7886 69.368 71.7246 67.96C73.7193 66.4933 75.978 65.3787 78.5006 64.616C81.0233 63.8533 83.6046 63.472 86.2446 63.472C88.5326 63.472 90.5566 63.6187 92.3166 63.912C94.0766 64.1467 95.9833 64.5867 98.0366 65.232C98.9166 65.5253 99.2686 66.0533 99.0926 66.816L98.3886 70.248C98.2126 71.2453 97.714 71.5093 96.8926 71.04C95.25 70.2773 93.6366 69.7787 92.0526 69.544C90.5273 69.2507 88.562 69.104 86.1566 69.104C84.2206 69.104 82.3726 69.3387 80.6126 69.808C78.9113 70.2773 77.4153 70.9813 76.1246 71.92C74.8926 72.8587 73.8953 74.032 73.1326 75.44C72.37 76.848 71.9886 78.52 71.9886 80.456C71.9886 81.9813 72.4873 83.4187 73.4846 84.768C74.5406 86.1173 75.802 87.3787 77.2686 88.552C78.794 89.7253 80.4073 90.8107 82.1086 91.808C83.8686 92.7467 85.4526 93.6267 86.8606 94.448C88.7966 95.5627 90.674 96.7067 92.4926 97.88C94.3113 99.0533 95.9246 100.373 97.3326 101.84C98.7406 103.307 99.8846 104.92 100.765 106.68C101.645 108.44 102.085 110.464 102.085 112.752C102.085 115.685 101.469 118.296 100.237 120.584C99.0633 122.872 97.4793 124.808 95.4846 126.392C93.49 127.976 91.1726 129.179 88.5326 130C85.9513 130.88 83.2526 131.32 80.4366 131.32C77.8553 131.32 75.538 131.144 73.4846 130.792C71.49 130.44 69.2313 129.853 66.7086 129.032ZM152.942 128.68C152.942 129.501 152.531 129.912 151.71 129.912H148.19C147.368 129.912 146.958 129.501 146.958 128.68V101.576C146.958 98.76 146.694 96.384 146.166 94.448C145.696 92.4533 144.992 90.8693 144.054 89.696C143.115 88.464 141.971 87.584 140.622 87.056C139.272 86.528 137.776 86.264 136.134 86.264C131.323 86.264 127.627 87.408 125.046 89.696C122.523 91.984 121.262 95.152 121.262 99.2V128.68C121.262 129.501 120.851 129.912 120.03 129.912H116.51C115.688 129.912 115.278 129.501 115.278 128.68V61.096C115.278 60.2747 115.688 59.864 116.51 59.864H120.03C120.851 59.864 121.262 60.2747 121.262 61.096V86.616C122.904 84.7387 124.928 83.3893 127.334 82.568C129.798 81.688 132.848 81.248 136.486 81.248C142.176 81.248 146.342 82.92 148.982 86.264C151.622 89.608 152.942 94.6827 152.942 101.488V128.68ZM195.749 105.096H194.077C190.792 104.979 187.858 105.125 185.277 105.536C182.754 105.888 180.642 106.387 178.941 107.032C176.477 107.912 174.629 109.232 173.397 110.992C172.165 112.693 171.549 114.747 171.549 117.152C171.549 118.619 171.784 119.997 172.253 121.288C172.722 122.52 173.456 123.488 174.453 124.192C176.213 125.6 178.56 126.304 181.493 126.304C183.546 126.304 185.424 125.893 187.125 125.072C188.885 124.251 190.41 123.077 191.701 121.552C192.992 120.027 193.989 118.149 194.693 115.92C195.397 113.632 195.749 111.021 195.749 108.088V105.096ZM170.669 89.696C170.376 89.872 170.082 89.9307 169.789 89.872C169.554 89.7547 169.437 89.5493 169.437 89.256V85.912C169.437 85.0907 169.848 84.4747 170.669 84.064C172.722 82.9493 174.893 82.1867 177.181 81.776C179.528 81.3067 182.08 81.072 184.837 81.072C190.704 81.072 194.986 82.48 197.685 85.296C200.384 88.0533 201.733 92.248 201.733 97.88V119.968C201.733 121.728 201.762 123.312 201.821 124.72C201.88 126.069 201.968 127.389 202.085 128.68C202.085 129.501 201.674 129.912 200.853 129.912H197.685C196.864 129.912 196.453 129.501 196.453 128.68V121.904C195.221 124.896 193.138 127.213 190.205 128.856C187.33 130.499 184.192 131.32 180.789 131.32C174.864 131.32 170.522 129.589 167.765 126.128C166.826 124.955 166.122 123.605 165.653 122.08C165.184 120.496 164.949 118.941 164.949 117.416C164.949 113.837 165.77 110.757 167.413 108.176C169.114 105.595 171.696 103.659 175.157 102.368C179.381 100.843 185.864 100.08 194.605 100.08H195.749V97.44C195.749 93.744 194.898 90.928 193.197 88.992C191.554 87.056 188.768 86.088 184.837 86.088C182.197 86.088 179.704 86.3813 177.357 86.968C175.01 87.496 172.781 88.4053 170.669 89.696ZM222.934 128.68C222.934 129.501 222.523 129.912 221.702 129.912H217.83C217.009 129.912 216.598 129.501 216.598 128.68V61.184C216.598 60.3627 217.009 59.952 217.83 59.952H221.702C222.523 59.952 222.934 60.3627 222.934 61.184V128.68ZM244.247 128.68C244.247 129.501 243.836 129.912 243.015 129.912H239.143C238.321 129.912 237.911 129.501 237.911 128.68V61.184C237.911 60.3627 238.321 59.952 239.143 59.952H243.015C243.836 59.952 244.247 60.3627 244.247 61.184V128.68ZM255.175 142.936C254.471 142.76 254.178 142.32 254.295 141.616L254.559 138.624C254.559 137.92 254.911 137.715 255.615 138.008C256.554 138.36 257.639 138.536 258.871 138.536C260.103 138.536 261.218 138.331 262.215 137.92C263.271 137.568 264.063 137.069 264.591 136.424C265.236 135.603 265.94 134.253 266.703 132.376C267.524 130.499 268.316 128.357 269.079 125.952C266.439 118.795 263.828 111.725 261.247 104.744C258.666 97.7627 256.055 90.6933 253.415 83.536C253.298 83.2427 253.298 82.9787 253.415 82.744C253.532 82.4507 253.767 82.304 254.119 82.304H258.255C259.076 82.304 259.663 82.7147 260.015 83.536L271.895 117.68C274.066 111.696 276.119 106.005 278.055 100.608C280.05 95.152 282.132 89.4613 284.303 83.536C284.596 82.7147 285.183 82.304 286.063 82.304H289.847C290.199 82.304 290.434 82.4507 290.551 82.744C290.668 82.9787 290.668 83.2427 290.551 83.536L272.247 132.64C271.602 134.341 270.868 135.867 270.047 137.216C269.284 138.565 268.492 139.651 267.671 140.472C266.615 141.469 265.442 142.203 264.151 142.672C262.86 143.2 261.511 143.464 260.103 143.464C259.223 143.464 258.431 143.435 257.727 143.376C257.023 143.317 256.172 143.171 255.175 142.936Z" fill="black"/>
<path d="M6.96282 64.153C6.14149 63.8963 5.80782 63.4343 5.96182 62.767L6.26982 59.225C6.37249 58.8143 6.52649 58.532 6.73182 58.378C6.98849 58.224 7.27082 58.2497 7.57882 58.455C9.37549 59.4303 11.1722 60.149 12.9688 60.611C14.8168 61.0217 16.9215 61.227 19.2828 61.227C23.0302 61.227 26.0845 60.2003 28.4458 58.147C30.8585 56.0937 32.0648 53.1933 32.0648 49.446C32.0648 47.9573 31.4745 46.4687 30.2938 44.98C29.1645 43.4913 27.5732 42.0797 25.5198 40.745C23.7232 39.6157 21.6955 38.435 19.4368 37.203C17.1782 35.971 15.0222 34.6363 12.9688 33.199C10.9155 31.7103 9.19582 30.0677 7.80982 28.271C6.42382 26.423 5.73082 24.2927 5.73082 21.88C5.73082 19.416 6.24415 17.26 7.27082 15.412C8.29749 13.5127 9.65782 11.947 11.3518 10.715C13.0972 9.43166 15.0735 8.45633 17.2808 7.789C19.4882 7.12166 21.7468 6.788 24.0568 6.788C26.0588 6.788 27.8298 6.91633 29.3698 7.173C30.9098 7.37833 32.5782 7.76333 34.3748 8.328C35.1448 8.58466 35.4528 9.04666 35.2988 9.714L34.6828 12.717C34.5288 13.5897 34.0925 13.8207 33.3738 13.41C31.9365 12.7427 30.5248 12.3063 29.1388 12.101C27.8042 11.8443 26.0845 11.716 23.9798 11.716C22.2858 11.716 20.6688 11.9213 19.1288 12.332C17.6402 12.7427 16.3312 13.3587 15.2018 14.18C14.1238 15.0013 13.2512 16.028 12.5838 17.26C11.9165 18.492 11.5828 19.955 11.5828 21.649C11.5828 22.9837 12.0192 24.2413 12.8918 25.422C13.8158 26.6027 14.9195 27.7063 16.2028 28.733C17.5375 29.7597 18.9492 30.7093 20.4378 31.582C21.9778 32.4033 23.3638 33.1733 24.5958 33.892C26.2898 34.8673 27.9325 35.8683 29.5238 36.895C31.1152 37.9217 32.5268 39.0767 33.7588 40.36C34.9908 41.6433 35.9918 43.055 36.7618 44.595C37.5318 46.135 37.9168 47.906 37.9168 49.908C37.9168 52.4747 37.3778 54.759 36.2998 56.761C35.2732 58.763 33.8872 60.457 32.1418 61.843C30.3965 63.229 28.3688 64.2813 26.0588 65C23.8002 65.77 21.4388 66.155 18.9748 66.155C16.7162 66.155 14.6885 66.001 12.8918 65.693C11.1465 65.385 9.17015 64.8717 6.96282 64.153ZM82.4168 63.845C82.4168 64.5637 82.0575 64.923 81.3388 64.923H78.2588C77.5401 64.923 77.1808 64.5637 77.1808 63.845V40.129C77.1808 37.665 76.9498 35.586 76.4878 33.892C76.0771 32.1467 75.4611 30.7607 74.6398 29.734C73.8185 28.656 72.8175 27.886 71.6368 27.424C70.4561 26.962 69.1471 26.731 67.7098 26.731C63.5005 26.731 60.2665 27.732 58.0078 29.734C55.8005 31.736 54.6968 34.508 54.6968 38.05V63.845C54.6968 64.5637 54.3375 64.923 53.6188 64.923H50.5388C49.8201 64.923 49.4608 64.5637 49.4608 63.845V4.709C49.4608 3.99033 49.8201 3.631 50.5388 3.631H53.6188C54.3375 3.631 54.6968 3.99033 54.6968 4.709V27.039C56.1341 25.3963 57.9051 24.2157 60.0098 23.497C62.1658 22.727 64.8351 22.342 68.0178 22.342C72.9971 22.342 76.6418 23.805 78.9518 26.731C81.2618 29.657 82.4168 34.0973 82.4168 40.052V63.845ZM101.624 67.233C101.624 67.9517 101.265 68.311 100.546 68.311H97.1581C96.4394 68.311 96.0801 67.9517 96.0801 67.233V27.732C96.0801 27.0133 96.4394 26.654 97.1581 26.654H100.546C101.265 26.654 101.624 27.0133 101.624 27.732V67.233ZM95.0791 12.101C95.0791 11.0743 95.4384 10.2017 96.1571 9.483C96.8758 8.713 97.7484 8.328 98.7751 8.328C99.8018 8.328 100.674 8.713 101.393 9.483C102.163 10.2017 102.548 11.0743 102.548 12.101C102.548 13.1277 102.163 14.0003 101.393 14.719C100.674 15.4377 99.8018 15.797 98.7751 15.797C97.7484 15.797 96.8758 15.4377 96.1571 14.719C95.4384 14.0003 95.0791 13.1277 95.0791 12.101ZM120.35 63.845C120.35 64.5637 119.99 64.923 119.272 64.923H115.884C115.165 64.923 114.806 64.5637 114.806 63.845V4.786C114.806 4.06733 115.165 3.708 115.884 3.708H119.272C119.99 3.708 120.35 4.06733 120.35 4.786V63.845ZM138.998 63.845C138.998 64.5637 138.639 64.923 137.92 64.923H134.532C133.813 64.923 133.454 64.5637 133.454 63.845V4.786C133.454 4.06733 133.813 3.708 134.532 3.708H137.92C138.639 3.708 138.998 4.06733 138.998 4.786V63.845ZM148.56 76.319C147.944 76.165 147.688 75.78 147.79 75.164L148.021 72.546C148.021 71.93 148.329 71.7503 148.945 72.007C149.767 72.315 150.716 72.469 151.794 72.469C152.872 72.469 153.848 72.2893 154.72 71.93C155.644 71.622 156.337 71.1857 156.799 70.621C157.364 69.9023 157.98 68.7217 158.647 67.079C159.366 65.4363 160.059 63.5627 160.726 61.458C158.416 55.1953 156.132 49.0097 153.873 42.901C151.615 36.7923 149.33 30.6067 147.02 24.344C146.918 24.0873 146.918 23.8563 147.02 23.651C147.123 23.3943 147.328 23.266 147.636 23.266H151.255C151.974 23.266 152.487 23.6253 152.795 24.344L163.19 54.22C165.09 48.984 166.886 44.0047 168.58 39.282C170.326 34.508 172.148 29.5287 174.047 24.344C174.304 23.6253 174.817 23.266 175.587 23.266H178.898C179.206 23.266 179.412 23.3943 179.514 23.651C179.617 23.8563 179.617 24.0873 179.514 24.344L163.498 67.31C162.934 68.7987 162.292 70.1333 161.573 71.314C160.906 72.4947 160.213 73.4443 159.494 74.163C158.57 75.0357 157.544 75.6773 156.414 76.088C155.285 76.55 154.104 76.781 152.872 76.781C152.102 76.781 151.409 76.7553 150.793 76.704C150.177 76.6527 149.433 76.5243 148.56 76.319Z" fill="black"/>
</svg>
