<svg width="32" height="51" viewBox="0 0 32 51" fill="none" xmlns="http://www.w3.org/2000/svg">
<g clip-path="url(#clip0_148_23)">
<path d="M32 16C32 7.16344 24.8366 0 16 0C7.16344 0 0 7.16344 0 16C0 24.8366 7.16344 32 16 32C24.8366 32 32 24.8366 32 16Z" fill="#DE5858"/>
<path d="M16 50.5021L29.8564 24.0614H2.14362L16 50.5021Z" fill="#DE5858"/>
<path d="M15.6981 22.3397C19.3661 22.3397 22.3396 19.3662 22.3396 15.6982C22.3396 12.0301 19.3661 9.05664 15.6981 9.05664C12.0301 9.05664 9.05658 12.0301 9.05658 15.6982C9.05658 19.3662 12.0301 22.3397 15.6981 22.3397Z" fill="white"/>
</g>
<defs>
<clipPath id="clip0_148_23">
<rect width="32" height="51" fill="white"/>
</clipPath>
</defs>
</svg>
